<?xml version="1.0" encoding="utf-8"?>
<!-- Generator: Adobe Illustrator 19.0.0, SVG Export Plug-In . SVG Version: 6.00 Build 0)  -->
<svg version="1.1" id="Layer_1" focusable="false" xmlns="http://www.w3.org/2000/svg" xmlns:xlink="http://www.w3.org/1999/xlink"
	 x="0px" y="0px" viewBox="-113 164 384 466" style="enable-background:new -113 164 384 466;" xml:space="preserve">
<style type="text/css">
	.st0{fill:#FFFFFF;}
</style>
<path class="st0" d="M205.7,409.7c-0.2-36.7,16.4-64.4,50-84.8c-18.8-26.9-47.2-41.7-84.7-44.6c-35.5-2.8-74.3,20.7-88.5,20.7
	c-15,0-49.4-19.7-76.4-19.7C-49.7,282.2-109,325.8-109,414.5c0,26.2,4.8,53.3,14.4,81.2c12.8,36.7,59,126.7,107.2,125.2
	c25.2-0.6,43-17.9,75.8-17.9c31.8,0,48.3,17.9,76.4,17.9c48.6-0.7,90.4-82.5,102.6-119.3C202.2,470.9,205.7,411.6,205.7,409.7
	L205.7,409.7z M149.1,245.5c27.3-32.4,24.8-61.9,24-72.5c-24.1,1.4-52,16.4-67.9,34.9c-17.5,19.8-27.8,44.3-25.6,71.9
	C105.7,281.8,129.5,268.4,149.1,245.5z"/>
</svg>
