<?xml version="1.0" encoding="utf-8"?>
<!-- Generator: Adobe Illustrator 19.0.0, SVG Export Plug-In . SVG Version: 6.00 Build 0)  -->
<svg version="1.1" id="Layer_1" focusable="false" xmlns="http://www.w3.org/2000/svg" xmlns:xlink="http://www.w3.org/1999/xlink"
	 x="0px" y="0px" viewBox="-81 141 448 512" style="enable-background:new -81 141 448 512;" xml:space="preserve">
<style type="text/css">
	.st0{fill:#FFFFFF;}
</style>
<path class="st0" d="M358.4,503.3c-19.3-20.8-55.5-52-55.5-154.3c0-77.7-54.5-139.9-127.9-155.2V173c0-17.7-14.3-32-32-32
	s-32,14.3-32,32v20.8C37.6,209.1-16.9,271.3-16.9,349c0,102.3-36.2,133.5-55.5,154.3c-6,6.5-8.7,14.2-8.6,21.7
	c0.1,16.4,13,32,32.1,32h383.8c19.1,0,32-15.6,32.1-32C367,517.4,364.4,509.7,358.4,503.3L358.4,503.3z M-13.5,509
	c21.2-28,44.4-74.3,44.5-159.4c0-0.2-0.1-0.4-0.1-0.6c0-61.9,50.1-112,112-112s112,50.1,112,112c0,0.2-0.1,0.4-0.1,0.6
	C255,434.7,278.3,481,299.5,509H-13.5z M143,653c35.3,0,64-28.7,64-64H79C79,624.3,107.7,653,143,653z"/>
</svg>
