<?xml version="1.0" encoding="utf-8"?>
<!-- Generator: Adobe Illustrator 19.0.0, SVG Export Plug-In . SVG Version: 6.00 Build 0)  -->
<svg version="1.1" id="Layer_1" focusable="false" xmlns="http://www.w3.org/2000/svg" xmlns:xlink="http://www.w3.org/1999/xlink"
	 x="0px" y="0px" viewBox="-49 141 512 512" style="enable-background:new -49 141 512 512;" xml:space="preserve">
<style type="text/css">
	.st0{fill:#FFFFFF;}
</style>
<path class="st0" d="M456,583.7L356.3,484c-4.5-4.5-10.6-7-17-7H323c27.6-35.3,44-79.7,44-128c0-114.9-93.1-208-208-208
	S-49,234.1-49,349s93.1,208,208,208c48.3,0,92.7-16.4,128-44v16.3c0,6.4,2.5,12.5,7,17l99.7,99.7c9.4,9.4,24.6,9.4,33.9,0l28.3-28.3
	C465.3,608.3,465.3,593.1,456,583.7z M159,477c-70.7,0-128-57.2-128-128c0-70.7,57.2-128,128-128c70.7,0,128,57.2,128,128
	C287,419.7,229.8,477,159,477z"/>
</svg>
